<?xml version="1.0" encoding="utf-8"?>
<!-- Generator: Adobe Illustrator 16.0.0, SVG Export Plug-In . SVG Version: 6.00 Build 0)  -->
<!DOCTYPE svg PUBLIC "-//W3C//DTD SVG 1.1//EN" "http://www.w3.org/Graphics/SVG/1.1/DTD/svg11.dtd">
<svg version="1.1" xmlns="http://www.w3.org/2000/svg" xmlns:xlink="http://www.w3.org/1999/xlink" x="0px" y="0px" width="800px"
	 height="800px" viewBox="0 0 800 800" enable-background="new 0 0 800 800" xml:space="preserve">
<g id="background">
	
		<radialGradient id="SVGID_1_" cx="341.4443" cy="333.2227" r="213.4821" gradientTransform="matrix(3.7037 0 0 3.3759 -877.832 -1003.8304)" gradientUnits="userSpaceOnUse">
		<stop  offset="0.3065" style="stop-color:#FFFFFF"/>
		<stop  offset="0.5189" style="stop-color:#FCFCFC"/>
		<stop  offset="0.7052" style="stop-color:#F1F1F2"/>
		<stop  offset="0.8811" style="stop-color:#DFE0E1"/>
		<stop  offset="0.9946" style="stop-color:#CFD1D2"/>
	</radialGradient>
	<rect fill="url(#SVGID_1_)" width="799.993" height="800"/>
</g>
<g id="objects">
	<g>
		<g>
			<g>
				<g enable-background="new    ">
					<g>
						<linearGradient id="SVGID_2_" gradientUnits="userSpaceOnUse" x1="-298.0361" y1="848.3877" x2="892.903" y2="515.4054">
							<stop  offset="0" style="stop-color:#94CD8E"/>
							<stop  offset="1" style="stop-color:#00BCE9"/>
						</linearGradient>
						<polygon fill="url(#SVGID_2_)" points="489.39,800 319.593,503.928 147.503,800 						"/>
						<linearGradient id="SVGID_3_" gradientUnits="userSpaceOnUse" x1="-295.2168" y1="858.4688" x2="895.7241" y2="525.486">
							<stop  offset="0" style="stop-color:#94CD8E"/>
							<stop  offset="1" style="stop-color:#00BCE9"/>
						</linearGradient>
						<polygon fill="url(#SVGID_3_)" points="116.099,800 60.214,702.558 3.577,800 						"/>
					</g>
				</g>
			</g>
			<g>
				<g enable-background="new    ">
					<g>
						<linearGradient id="SVGID_4_" gradientUnits="userSpaceOnUse" x1="502.0928" y1="617.9932" x2="660.0956" y2="573.8162">
							<stop  offset="0" style="stop-color:#94CD8E"/>
							<stop  offset="1" style="stop-color:#00BCE9"/>
						</linearGradient>
						<polygon fill="url(#SVGID_4_)" points="581.103,595.912 581.112,595.895 581.092,595.895 						"/>
					</g>
				</g>
			</g>
			<g>
				<g enable-background="new    ">
					<polygon fill="#E8EAE8" points="0,800 159.939,800 66.996,637.967 0,753.252 					"/>
				</g>
			</g>
			<g>
				<g enable-background="new    ">
					<linearGradient id="SVGID_5_" gradientUnits="userSpaceOnUse" x1="-325.9131" y1="748.6719" x2="865.0233" y2="415.6903">
						<stop  offset="0" style="stop-color:#94CD8E"/>
						<stop  offset="1" style="stop-color:#00BCE9"/>
					</linearGradient>
					<polygon fill="url(#SVGID_5_)" points="386.92,549.458 345.528,478.227 427.622,478.458 510,478.227 469.013,549.688 
						427.764,620.66 					"/>
				</g>
			</g>
			<g>
				<g enable-background="new    ">
					<linearGradient id="SVGID_6_" gradientUnits="userSpaceOnUse" x1="-344.1045" y1="683.6055" x2="846.8378" y2="350.6223">
						<stop  offset="0" style="stop-color:#94CD8E"/>
						<stop  offset="1" style="stop-color:#00BCE9"/>
					</linearGradient>
					<polygon fill="url(#SVGID_6_)" points="586.231,423.437 609,462.619 563.842,462.491 518.528,462.619 541.074,423.311 
						563.765,384.27 					"/>
				</g>
			</g>
			<g>
				<g enable-background="new    ">
					<g>
						<linearGradient id="SVGID_7_" gradientUnits="userSpaceOnUse" x1="-279.8184" y1="913.5508" x2="911.1256" y2="580.5671">
							<stop  offset="0" style="stop-color:#94CD8E"/>
							<stop  offset="1" style="stop-color:#00BCE9"/>
						</linearGradient>
						<polygon fill="url(#SVGID_7_)" points="800,721.3 800,501.979 736.976,610.435 673.181,721.654 						"/>
					</g>
					<g>
						<polygon fill="#E8EAE8" points="800,499.244 672.772,499.251 736.976,610.435 800,720.323 						"/>
					</g>
				</g>
			</g>
			<g>
				<g enable-background="new    ">
					<g>
						<linearGradient id="SVGID_8_" gradientUnits="userSpaceOnUse" x1="-253.6104" y1="1007.2891" x2="937.3284" y2="674.3069">
							<stop  offset="0" style="stop-color:#94CD8E"/>
							<stop  offset="1" style="stop-color:#00BCE9"/>
						</linearGradient>
						<polygon fill="url(#SVGID_8_)" points="621.701,800 584.683,735.46 547.175,800 						"/>
					</g>
					<g>
						<linearGradient id="SVGID_9_" gradientUnits="userSpaceOnUse" x1="865.4258" y1="908.2158" x2="17.9644" y2="137.2504">
							<stop  offset="0" style="stop-color:#94CD8E"/>
							<stop  offset="1" style="stop-color:#00BCE9"/>
						</linearGradient>
						<polygon fill="url(#SVGID_9_)" points="800,800 800,734.842 772.512,734.921 583.745,734.929 621.321,800 						"/>
					</g>
					<g>
						<polygon fill="#E8EAE8" points="800,800 800,782.534 772.512,734.921 679.051,571.994 584.683,734.4 395.935,734.394 
							433.811,800 						"/>
					</g>
				</g>
			</g>
		</g>
	</g>
	<g opacity="0.2">
		<g>
			<g>
				<g enable-background="new    ">
					<g>
						<polygon fill="#E8EAE8" points="547.507,0 655.898,188.973 765.719,0 						"/>
						<polygon fill="#E8EAE8" points="306.613,0 414.611,188.287 524.034,0 						"/>
						<polygon fill="#E8EAE8" points="800,0 788.416,0 800,20.198 						"/>
					</g>
				</g>
			</g>
			<g>
				<g enable-background="new    ">
					<g>
						<polygon fill="#E8EAE8" points="0,0 0,51.598 52.135,141.881 162.94,335.034 274.806,142.5 385.611,335.67 497.491,143.125 
							721.279,143.132 638.642,0 						"/>
					</g>
				</g>
			</g>
			<g>
				<g enable-background="new    ">
					<g>
						<linearGradient id="SVGID_10_" gradientUnits="userSpaceOnUse" x1="1131.2568" y1="616.0068" x2="283.8003" y2="-154.9542">
							<stop  offset="0" style="stop-color:#94CD8E"/>
							<stop  offset="1" style="stop-color:#00BCE9"/>
						</linearGradient>
						<polygon fill="url(#SVGID_10_)" points="800,80.49 800,0 336.4,0 287.241,85.722 491.862,85.137 392.405,258.499 
							592.282,257.945 797.197,257.938 694.732,80.475 						"/>
					</g>
				</g>
			</g>
			<g>
				<g enable-background="new    ">
					<linearGradient id="SVGID_11_" gradientUnits="userSpaceOnUse" x1="-401.6006" y1="477.9688" x2="789.3367" y2="144.987">
						<stop  offset="0" style="stop-color:#94CD8E"/>
						<stop  offset="1" style="stop-color:#00BCE9"/>
					</linearGradient>
					<polygon fill="url(#SVGID_11_)" points="356.286,266.169 309.584,185.798 402.211,186.06 495.158,185.798 448.912,266.429 
						402.37,346.508 					"/>
				</g>
			</g>
		</g>
		<g>
			<g>
				<g enable-background="new    ">
					<g>
						<polygon fill="#E8EAE8" points="12.119,0 55.672,74.946 98.663,0 						"/>
						<polygon fill="#E8EAE8" points="219.937,0 263.151,74.356 305.8,0 						"/>
					</g>
				</g>
			</g>
			<g>
				<g enable-background="new    ">
					<g>
						<linearGradient id="SVGID_12_" gradientUnits="userSpaceOnUse" x1="1172.7354" y1="570.4111" x2="325.2771" y2="-200.5514">
							<stop  offset="0" style="stop-color:#94CD8E"/>
							<stop  offset="1" style="stop-color:#00BCE9"/>
						</linearGradient>
						<polygon fill="url(#SVGID_12_)" points="402.292,0 382.402,34.446 574.835,34.458 766.993,35.01 746.914,0 						"/>
					</g>
					<g>
						<polygon fill="#E8EAE8" points="19.982,0 0,34.61 0,35.535 191.886,35.528 288.076,201.088 383.35,34.99 479.554,200.535 
							574.835,34.458 594.731,0 						"/>
					</g>
				</g>
			</g>
			<g>
				<g enable-background="new    ">
					<g>
						<linearGradient id="SVGID_13_" gradientUnits="userSpaceOnUse" x1="938.6055" y1="827.7803" x2="91.1456" y2="56.8163">
							<stop  offset="0" style="stop-color:#94CD8E"/>
							<stop  offset="1" style="stop-color:#00BCE9"/>
						</linearGradient>
						<polygon fill="url(#SVGID_13_)" points="11.706,0 0,20.273 0,134.254 110.386,134.254 282.244,134.724 204.957,0 						"/>
					</g>
				</g>
			</g>
		</g>
	</g>
	<g opacity="0.6">
		<g>
			<g enable-background="new    ">
				<g>
					<g>
						<polygon fill="#FFFFFF" points="34.314,0 141.158,183.852 246.613,0 247.193,0 141.379,184.479 141.162,184.858 33.731,0 
													"/>
					</g>
					<g>
						<polygon fill="#FFFFFF" points="277.826,0 384.269,183.16 489.327,0 489.908,0 384.489,183.789 384.271,184.168 277.242,0 
													"/>
					</g>
					<g>
						<polygon fill="#FFFFFF" points="4.465,0 0,7.784 0,6.771 3.884,0 						"/>
					</g>
				</g>
			</g>
		</g>
		<g>
			<g enable-background="new    ">
				<g>
					<g>
						<polygon fill="#FFFFFF" points="800,136.801 800,137.305 749.486,137.159 523.572,137.159 602.769,0 603.352,0 
							524.444,136.655 749.487,136.655 						"/>
					</g>
				</g>
				<g>
					<g>
						<polygon fill="#FFFFFF" points="800,49.936 749.705,137.032 638.063,331.646 637.846,332.024 525.134,138.035 
							413.709,332.286 413.492,332.665 300.619,138.413 74.85,138.421 154.767,0 155.348,0 75.722,137.917 300.909,137.909 
							413.49,331.657 524.914,137.406 525.132,137.027 637.844,331.017 749.268,136.781 800,48.928 						"/>
					</g>
				</g>
			</g>
		</g>
		<g>
			<g enable-background="new    ">
				<g>
					<g>
						<polygon fill="#FFFFFF" points="0,252.256 0,251.248 101.597,75.29 0,75.304 0,74.8 102.469,74.786 						"/>
						<polygon fill="#FFFFFF" points="406.209,254.153 306.218,79.859 306,79.481 512.167,80.071 466.251,0 466.83,0 
							512.822,80.199 513.039,80.576 306.872,79.987 406.863,254.28 407.08,254.658 205.258,254.101 0,254.093 0,253.589 
							205.258,253.597 						"/>
					</g>
				</g>
			</g>
		</g>
		<g>
			<g enable-background="new    ">
				<g>
					<path fill="#FFFFFF" d="M443.255,262.261l-46.433,80.944l-0.217,0.379l-47.113-81.063l-46.596-81.239l-0.217-0.378
						l94.084,0.264l93.327-0.263l0.439-0.001L443.255,262.261z M442.819,262.009l46.834-80.599l-92.89,0.262l-93.213-0.262
						l46.378,80.859l46.675,80.308L442.819,262.009z"/>
				</g>
			</g>
		</g>
		<g>
			<g enable-background="new    ">
				<g>
					<g>
						<polygon fill="#FFFFFF" points="706.364,0 745.924,68.963 786,0 786.583,0 746.14,69.594 745.922,69.971 705.783,0 						"/>
					</g>
					<g>
						<polygon fill="#FFFFFF" points="497.662,0 536.877,68.369 576.611,0 577.194,0 537.094,69 536.875,69.376 497.082,0 						"/>
					</g>
				</g>
			</g>
		</g>
		<g>
			<g enable-background="new    ">
				<g>
					<g>
						<polygon fill="#FFFFFF" points="46.28,0 29.661,28.977 222.836,28.421 416.287,28.408 399.883,0 400.466,0 416.941,28.534 
							417.159,28.912 222.837,28.925 29.227,29.481 28.79,29.482 45.699,0 						"/>
					</g>
				</g>
				<g>
					<g>
						<polygon fill="#FFFFFF" points="800,30.01 608.824,30.003 511.979,196.688 511.761,197.065 415.768,29.713 319.056,196.132 
							318.836,196.509 222.618,28.799 205.989,0 206.57,0 223.055,28.548 318.839,195.501 415.551,29.082 415.77,28.705 
							511.763,196.058 608.462,29.624 608.535,29.499 800,29.506 						"/>
						<polygon fill="#FFFFFF" points="800,25.839 785.081,0 785.663,0 800,24.83 						"/>
					</g>
				</g>
			</g>
		</g>
		<g>
			<g enable-background="new    ">
				<g>
					<g>
						<polygon fill="#FFFFFF" points="800,128.971 800,129.475 690.796,129.475 517.639,129.949 517.202,129.95 591.751,0 
							592.331,0 518.074,129.444 690.795,128.971 						"/>
						<polygon fill="#FFFFFF" points="800,11.395 793.422,0 794.003,0 800,10.386 						"/>
					</g>
				</g>
			</g>
		</g>
	</g>
	<g opacity="0.3">
		<g>
			<g enable-background="new    ">
				<g>
					<g>
						<polygon fill="#FFFFFF" points="765.687,800 658.843,616.149 553.388,800 552.808,800 658.622,615.521 658.839,615.142 
							766.27,800 						"/>
					</g>
					<g>
						<polygon fill="#FFFFFF" points="522.175,800 415.732,616.841 310.674,800 310.093,800 415.512,616.212 415.729,615.833 
							522.759,800 						"/>
					</g>
					<g>
						<polygon fill="#FFFFFF" points="795.536,800 800.001,792.216 800.001,793.229 796.117,800 						"/>
					</g>
				</g>
			</g>
		</g>
		<g>
			<g enable-background="new    ">
				<g>
					<g>
						<polygon fill="#FFFFFF" points="0.001,663.2 0.001,662.696 50.515,662.841 276.429,662.841 197.232,800 196.649,800 
							275.557,663.345 50.514,663.345 						"/>
					</g>
				</g>
				<g>
					<g>
						<polygon fill="#FFFFFF" points="0.001,750.065 50.296,662.968 161.938,468.354 162.155,467.975 274.867,661.966 
							386.292,467.713 386.509,467.334 499.382,661.587 725.151,661.579 645.234,800 644.653,800 724.279,662.083 499.092,662.091 
							386.511,468.342 275.087,662.595 274.869,662.974 162.157,468.982 50.733,663.22 0.001,751.073 						"/>
					</g>
				</g>
			</g>
		</g>
		<g>
			<g enable-background="new    ">
				<g>
					<g>
						<polygon fill="#FFFFFF" points="800.001,547.745 800.001,548.753 698.404,724.71 800.001,724.696 800.001,725.2 
							697.532,725.214 						"/>
						<polygon fill="#FFFFFF" points="393.792,545.847 493.783,720.142 494.001,720.519 287.834,719.929 333.75,800 333.171,800 
							287.179,719.802 286.962,719.425 493.129,720.013 393.138,545.72 392.921,545.343 594.743,545.899 800.001,545.907 
							800.001,546.411 594.743,546.403 						"/>
					</g>
				</g>
			</g>
		</g>
		<g>
			<g enable-background="new    ">
				<g>
					<path fill="#FFFFFF" d="M356.746,537.739l46.433-80.944l0.217-0.379l47.113,81.063l46.596,81.238l0.217,0.379l-94.084-0.264
						l-93.327,0.262l-0.439,0.002L356.746,537.739z M357.182,537.991l-46.834,80.6l92.89-0.262l93.213,0.262l-46.378-80.859
						l-46.675-80.31L357.182,537.991z"/>
				</g>
			</g>
		</g>
		<g>
			<g enable-background="new    ">
				<g>
					<g>
						<polygon fill="#FFFFFF" points="93.637,800 54.077,731.038 14.001,800 13.418,800 53.861,730.407 54.079,730.03 94.218,800 
													"/>
					</g>
					<g>
						<polygon fill="#FFFFFF" points="302.339,800 263.124,731.632 223.39,800 222.807,800 262.907,731.001 263.126,730.624 
							302.919,800 						"/>
					</g>
				</g>
			</g>
		</g>
		<g>
			<g enable-background="new    ">
				<g>
					<g>
						<polygon fill="#FFFFFF" points="753.721,800 770.34,771.024 577.165,771.579 383.714,771.593 400.118,800 399.535,800 
							383.06,771.466 382.842,771.089 577.164,771.075 770.774,770.519 771.211,770.519 754.302,800 						"/>
					</g>
				</g>
				<g>
					<g>
						<polygon fill="#FFFFFF" points="0.001,769.991 191.177,769.997 288.021,603.312 288.24,602.935 384.233,770.288 
							480.945,603.868 481.165,603.491 577.383,771.202 594.012,800 593.431,800 576.946,771.452 481.162,604.499 384.45,770.919 
							384.231,771.296 288.238,603.942 191.539,770.376 191.466,770.501 0.001,770.495 						"/>
						<polygon fill="#FFFFFF" points="0.001,774.161 14.92,800 14.338,800 0.001,775.171 						"/>
					</g>
				</g>
			</g>
		</g>
		<g>
			<g enable-background="new    ">
				<g>
					<g>
						<polygon fill="#FFFFFF" points="0.001,671.03 0.001,670.526 109.205,670.526 282.362,670.052 282.799,670.05 208.25,800 
							207.67,800 281.927,670.556 109.206,671.03 						"/>
						<polygon fill="#FFFFFF" points="0.001,788.605 6.579,800 5.998,800 0.001,789.614 						"/>
					</g>
				</g>
			</g>
		</g>
	</g>
</g>
</svg>
